<mxfile host="app.diagrams.net" modified="2024-05-08T00:49:17.093Z" agent="Mozilla/5.0 (Windows NT 10.0; Win64; x64) AppleWebKit/537.36 (KHTML, like Gecko) Chrome/124.0.0.0 Safari/537.36" etag="seTihZkDaNhcfVDMJmny" version="24.3.1" type="github">
  <diagram name="Сторінка-1" id="4yuRG69Y8J3sjxrQUflu">
    <mxGraphModel dx="955" dy="482" grid="1" gridSize="10" guides="1" tooltips="1" connect="1" arrows="1" fold="1" page="1" pageScale="1" pageWidth="827" pageHeight="1169" math="0" shadow="0">
      <root>
        <mxCell id="0" />
        <mxCell id="1" parent="0" />
        <mxCell id="FoRWh7pk5hB0Fc30gD0U-1" value="" style="html=1;points=[[0,0,0,0,5],[0,1,0,0,-5],[1,0,0,0,5],[1,1,0,0,-5]];perimeter=orthogonalPerimeter;outlineConnect=0;targetShapes=umlLifeline;portConstraint=eastwest;newEdgeStyle={&quot;curved&quot;:0,&quot;rounded&quot;:0};" vertex="1" parent="1">
          <mxGeometry x="120" y="250" width="10" height="280" as="geometry" />
        </mxCell>
        <mxCell id="FoRWh7pk5hB0Fc30gD0U-2" value="Менеджер" style="html=1;whiteSpace=wrap;" vertex="1" parent="1">
          <mxGeometry x="70" y="210" width="110" height="50" as="geometry" />
        </mxCell>
        <mxCell id="FoRWh7pk5hB0Fc30gD0U-3" value="" style="html=1;points=[[0,0,0,0,5],[0,1,0,0,-5],[1,0,0,0,5],[1,1,0,0,-5]];perimeter=orthogonalPerimeter;outlineConnect=0;targetShapes=umlLifeline;portConstraint=eastwest;newEdgeStyle={&quot;curved&quot;:0,&quot;rounded&quot;:0};" vertex="1" parent="1">
          <mxGeometry x="280" y="260" width="10" height="270" as="geometry" />
        </mxCell>
        <mxCell id="FoRWh7pk5hB0Fc30gD0U-4" value="Профіль" style="html=1;whiteSpace=wrap;" vertex="1" parent="1">
          <mxGeometry x="230" y="210" width="110" height="50" as="geometry" />
        </mxCell>
        <mxCell id="FoRWh7pk5hB0Fc30gD0U-5" value="" style="html=1;points=[[0,0,0,0,5],[0,1,0,0,-5],[1,0,0,0,5],[1,1,0,0,-5]];perimeter=orthogonalPerimeter;outlineConnect=0;targetShapes=umlLifeline;portConstraint=eastwest;newEdgeStyle={&quot;curved&quot;:0,&quot;rounded&quot;:0};" vertex="1" parent="1">
          <mxGeometry x="490" y="260" width="10" height="270" as="geometry" />
        </mxCell>
        <mxCell id="FoRWh7pk5hB0Fc30gD0U-6" value="Компанія" style="html=1;whiteSpace=wrap;" vertex="1" parent="1">
          <mxGeometry x="440" y="210" width="110" height="50" as="geometry" />
        </mxCell>
        <mxCell id="FoRWh7pk5hB0Fc30gD0U-7" value="" style="endArrow=open;endFill=1;endSize=12;html=1;rounded=0;" edge="1" parent="1">
          <mxGeometry width="160" relative="1" as="geometry">
            <mxPoint x="130" y="280" as="sourcePoint" />
            <mxPoint x="490" y="280" as="targetPoint" />
            <Array as="points">
              <mxPoint x="270" y="280" />
              <mxPoint x="310" y="280" />
            </Array>
          </mxGeometry>
        </mxCell>
        <mxCell id="FoRWh7pk5hB0Fc30gD0U-8" value="Знайти профіль {&amp;lt;1 хвилини}" style="edgeLabel;html=1;align=center;verticalAlign=middle;resizable=0;points=[];" vertex="1" connectable="0" parent="FoRWh7pk5hB0Fc30gD0U-7">
          <mxGeometry x="0.24" y="3" relative="1" as="geometry">
            <mxPoint x="27" y="-7" as="offset" />
          </mxGeometry>
        </mxCell>
        <mxCell id="FoRWh7pk5hB0Fc30gD0U-9" value="" style="endArrow=open;endFill=1;endSize=12;html=1;rounded=0;" edge="1" parent="1">
          <mxGeometry width="160" relative="1" as="geometry">
            <mxPoint x="130" y="430" as="sourcePoint" />
            <mxPoint x="280" y="430" as="targetPoint" />
          </mxGeometry>
        </mxCell>
        <mxCell id="FoRWh7pk5hB0Fc30gD0U-10" value="Задати нові значення&lt;div&gt;{&amp;lt;10 секунд}&lt;/div&gt;" style="edgeLabel;html=1;align=center;verticalAlign=middle;resizable=0;points=[];" vertex="1" connectable="0" parent="FoRWh7pk5hB0Fc30gD0U-9">
          <mxGeometry x="-0.4653" y="-1" relative="1" as="geometry">
            <mxPoint x="20" y="-21" as="offset" />
          </mxGeometry>
        </mxCell>
        <mxCell id="FoRWh7pk5hB0Fc30gD0U-11" value="Отримати значення&amp;nbsp;&lt;div&gt;профілю {&amp;lt;5 секунд}&lt;/div&gt;" style="html=1;verticalAlign=bottom;endArrow=open;dashed=1;endSize=8;curved=0;rounded=0;" edge="1" parent="1">
          <mxGeometry relative="1" as="geometry">
            <mxPoint x="280" y="390" as="sourcePoint" />
            <mxPoint x="130" y="390" as="targetPoint" />
            <Array as="points">
              <mxPoint x="200" y="390" />
            </Array>
          </mxGeometry>
        </mxCell>
        <mxCell id="FoRWh7pk5hB0Fc30gD0U-12" value="frame" style="shape=umlFrame;whiteSpace=wrap;html=1;pointerEvents=0;" vertex="1" parent="1">
          <mxGeometry x="60" y="320" width="460" height="200" as="geometry" />
        </mxCell>
        <mxCell id="FoRWh7pk5hB0Fc30gD0U-13" value="" style="html=1;verticalAlign=bottom;endArrow=none;dashed=1;endSize=8;curved=0;rounded=0;endFill=0;" edge="1" parent="1">
          <mxGeometry relative="1" as="geometry">
            <mxPoint x="490" y="440" as="sourcePoint" />
            <mxPoint x="130" y="440" as="targetPoint" />
          </mxGeometry>
        </mxCell>
        <mxCell id="FoRWh7pk5hB0Fc30gD0U-14" value="Повернути для операції {1 секунда}" style="html=1;verticalAlign=bottom;endArrow=open;dashed=1;endSize=8;curved=0;rounded=0;" edge="1" parent="1">
          <mxGeometry relative="1" as="geometry">
            <mxPoint x="490" y="310" as="sourcePoint" />
            <mxPoint x="130" y="310" as="targetPoint" />
          </mxGeometry>
        </mxCell>
        <mxCell id="FoRWh7pk5hB0Fc30gD0U-15" value="" style="endArrow=open;endFill=1;endSize=12;html=1;rounded=0;" edge="1" parent="1">
          <mxGeometry width="160" relative="1" as="geometry">
            <mxPoint x="130" y="500" as="sourcePoint" />
            <mxPoint x="280" y="500" as="targetPoint" />
          </mxGeometry>
        </mxCell>
        <mxCell id="FoRWh7pk5hB0Fc30gD0U-16" value="&lt;div&gt;(обрано видалення)&lt;/div&gt;Обірвати зв&#39;язки/очистити&lt;div&gt;{&amp;lt;10 секунд}&lt;/div&gt;" style="edgeLabel;html=1;align=center;verticalAlign=middle;resizable=0;points=[];" vertex="1" connectable="0" parent="FoRWh7pk5hB0Fc30gD0U-15">
          <mxGeometry x="-0.4653" y="-1" relative="1" as="geometry">
            <mxPoint x="30" y="-31" as="offset" />
          </mxGeometry>
        </mxCell>
        <mxCell id="FoRWh7pk5hB0Fc30gD0U-17" value="" style="endArrow=open;endFill=1;endSize=12;html=1;rounded=0;" edge="1" parent="1" source="FoRWh7pk5hB0Fc30gD0U-3">
          <mxGeometry width="160" relative="1" as="geometry">
            <mxPoint x="130" y="510.0000000000001" as="sourcePoint" />
            <mxPoint x="490" y="510.0000000000001" as="targetPoint" />
          </mxGeometry>
        </mxCell>
        <mxCell id="FoRWh7pk5hB0Fc30gD0U-19" value="Видалити профіль {&amp;lt; 5 секунд}" style="edgeLabel;html=1;align=center;verticalAlign=middle;resizable=0;points=[];" vertex="1" connectable="0" parent="FoRWh7pk5hB0Fc30gD0U-17">
          <mxGeometry x="-0.2193" relative="1" as="geometry">
            <mxPoint x="12" y="-10" as="offset" />
          </mxGeometry>
        </mxCell>
      </root>
    </mxGraphModel>
  </diagram>
</mxfile>
